<?xml version="1.0" encoding="utf-8"?>
<svg viewBox="0 0 315 105" preserveAspectRatio="xMidYMid meet" class="css-fxal1u" id="gcbecgca" width="315" height="105" xmlns="http://www.w3.org/2000/svg">
  <defs id="SvgjsDefs2448"/>
  <g id="SvgjsG2449" featurekey="rootContainer" transform="matrix(1,0,0,1,0,0)" fill="#6356E5">
    <rect xmlns="http://www.w3.org/2000/svg" width="315" height="105" rx="10" ry="10" style="paint-order: fill; fill: rgb(32, 38, 210);"/>
  </g>
  <g id="SvgjsG2450" featurekey="nameLeftFeature-0" transform="matrix(2.8616847981000504,0,0,2.8616847981000504,17.13831520189995,13.766297215210756)" fill="#F3F6F6">
    <path d="M1.26 20 c-0.14 0 -0.26 -0.12 -0.26 -0.26 l0 -11.98 c0 -0.14 0.12 -0.26 0.26 -0.26 l8.26 0 c0.08 0 0.14 0.02 0.18 0.08 c0.06 0.04 0.08 0.1 0.08 0.18 l-0.02 2.24 c0 0.14 -0.12 0.26 -0.26 0.26 l-5.4 0 l0 2.42 l3.4 0 c0.14 0 0.26 0.12 0.26 0.26 l0 2.26 c0 0.14 -0.12 0.26 -0.26 0.26 l-3.4 0 l0 4.28 c0 0.14 -0.1 0.26 -0.24 0.26 l-2.6 0 z M11.38 20 l0 -11.98 c0 -0.5 0.1 -0.6 0.26 -0.6 l8.76 0 c0.14 0 0.26 0.1 0.26 0.24 l0 2.26 c0 0.14 -0.12 0.26 -0.26 0.26 l-5.92 0 l0 2.08 l3.74 0 c0.14 0 0.26 0.12 0.26 0.26 l0 2.24 c0 0.14 -0.12 0.26 -0.26 0.26 l-3.74 0 l0 2.14 l5.9 0 c0.14 0 0.26 0.12 0.26 0.26 l0 2.24 c0 0.14 -0.12 0.26 -0.26 0.26 l-8.74 0 c-0.16 0 -0.26 -0.12 -0.26 0.08 z M22.92 20 c-0.14 0 -0.26 -0.12 -0.26 -0.26 l0 -11.98 c0 -0.14 0.12 -0.26 0.26 -0.26 l2.6 0 c0.14 0 0.26 0.12 0.26 0.26 l0 9.36 l4.5 0 c0.14 0 0.26 0.12 0.26 0.26 l0 2.36 c0 0.14 -0.12 0.26 -0.26 0.26 l-7.36 0 z M32.8 20 c-0.14 0 -0.26 -0.12 -0.26 -0.26 l0 -11.98 c0 -0.14 0.12 -0.26 0.26 -0.26 l2.6 0 c0.14 0 0.26 0.12 0.26 0.26 l0 11.98 c0 0.14 -0.12 0.26 -0.26 0.26 l-2.6 0 z M37.9 20 c-0.1 0 -0.18 -0.06 -0.22 -0.14 s-0.04 -0.18 0 -0.26 l3.36 -5.98 l-3.08 -5.72 c-0.04 -0.08 -0.04 -0.18 0 -0.26 s0.12 -0.14 0.22 -0.14 l2.82 0 c0.1 0 0.18 0.04 0.22 0.12 l1.68 3.16 l1.68 -3.16 c0.04 -0.08 0.12 -0.12 0.22 -0.12 l2.88 0 c0.08 0 0.18 0.06 0.22 0.14 s0.04 0.18 -0.02 0.26 l-3.04 5.6 l3.38 6.1 c0.04 0.08 0.06 0.18 0 0.26 c-0.04 0.08 -0.12 0.14 -0.22 0.14 l-2.9 0 c-0.1 0 -0.18 -0.04 -0.22 -0.12 l-1.98 -3.5 l-1.94 3.5 c-0.06 0.08 -0.14 0.12 -0.22 0.12 l-2.84 0 z" fill="#F3F6F6"/>
  </g>
  <g id="SvgjsG2451" featurekey="inlineSymbolFeature-0" transform="matrix(0.7200000000000001,0,0,0.7200000000000001,162.3280010986328,17.12)" fill="#F3F6F6">
    <g xmlns="http://www.w3.org/2000/svg" fill="#F3F6F6">
      <path d="M86,36.7c0.1,0,0.3-0.1,0.4-0.1V13.7C86.4,4.1,53.4,4,52,4s-34.4,0.1-34.4,9.7v22.8c0.2,0,0.3,0.1,0.4,0.2   C19.5,37.2,52.9,48.4,86,36.7z M22.1,13.4c0.2-0.2,0.5-0.4,0.9-0.6c0.3-0.2,0.6-0.3,1-0.5c0.3-0.2,0.7-0.3,1.2-0.5   c2.8-1,11.1-3.5,26.8-3.5c15.1,0,23.3,2.3,26.2,3.2c3,1,3.9,1.9,3.9,2.1c0,0-0.1,0.1-0.3,0.3c-0.1,0.1-0.3,0.2-0.4,0.3l-0.1,0.1   c-0.2,0.1-0.4,0.2-0.7,0.4l-0.2,0.1c-0.2,0.1-0.5,0.2-0.8,0.3l-0.3,0.1c-0.3,0.1-0.6,0.2-1,0.4l-0.3,0.1c-0.4,0.1-0.7,0.2-1.1,0.4   l-0.5,0.1c-0.4,0.1-0.8,0.2-1.3,0.3l-0.6,0.1c-0.5,0.1-1,0.2-1.5,0.3c-0.3,0.1-0.7,0.1-1.1,0.2l-1,0.2c-0.3,0.1-0.7,0.1-1,0.2   l-0.2,0c-0.4,0.1-0.7,0.1-1.1,0.2c-0.4,0.1-0.8,0.1-1.3,0.2c-0.4,0.1-0.9,0.1-1.3,0.2c-0.4,0-0.9,0.1-1.3,0.1   c-0.5,0.1-1,0.1-1.5,0.1c-0.4,0-0.9,0.1-1.3,0.1c-0.6,0-1.2,0.1-1.8,0.1l-1.3,0.1c-0.7,0-1.4,0.1-2.1,0.1l-1.1,0   c-1.1,0-2.3,0-3.5,0c-1.2,0-2.3,0-3.4,0l-1.1,0c-0.7,0-1.4,0-2.1-0.1l-1.3-0.1c-0.6,0-1.2-0.1-1.8-0.1c-0.4,0-0.9-0.1-1.3-0.1   c-0.5,0-1-0.1-1.5-0.1c-0.4,0-0.9-0.1-1.3-0.1c-0.5-0.1-0.9-0.1-1.3-0.2c-0.4-0.1-0.9-0.1-1.3-0.2c-0.4-0.1-0.7-0.1-1.1-0.2   L34,17.7c-0.3,0-0.6-0.1-0.9-0.1l-1-0.2c-0.4-0.1-0.8-0.1-1.1-0.2c-0.5-0.1-1-0.2-1.5-0.3l-0.6-0.1c-0.5-0.1-0.9-0.2-1.3-0.3   l-0.5-0.2c-0.4-0.1-0.8-0.2-1.1-0.4l-0.4-0.1c-0.3-0.1-0.6-0.2-0.9-0.3l-0.3-0.1c-0.3-0.1-0.5-0.2-0.8-0.4l-0.1-0.1   c-0.2-0.1-0.5-0.2-0.7-0.4c0,0-0.1-0.1-0.1-0.1c-0.2-0.1-0.3-0.2-0.5-0.4c-0.1-0.1-0.2-0.2-0.2-0.2C21.8,13.7,21.9,13.6,22.1,13.4z   " fill="#F3F6F6"/>
      <path d="M86.2,61.9c0.1,0,0.2,0,0.3-0.1V41.1c-11.4,3.8-22.9,5.2-33.2,5.2c-17,0-30.8-3.6-35.6-5.2v21   C23.9,64.2,55.7,73.7,86.2,61.9z" fill="#F3F6F6"/>
      <path d="M17.6,66.5v17.8c0,9.6,33,9.7,34.4,9.7s34.4-0.1,34.4-9.7V66.4c-11.5,4.2-22.9,5.7-33.2,5.7C36.9,72.1,23.5,68.5,17.6,66.5   z" fill="#F3F6F6"/>
    </g>
  </g>
  <g id="SvgjsG2452" featurekey="nameRightFeature-0" transform="matrix(2.380078548374588,0,0,2.380078548374588,230.49472575848236,23.385223221012986)" fill="#F3F6F6">
    <path d="M14.040000000000001 4.880000000000001 c1.46 0 2.76 0.9 3.28 2.26 l5.02 12.02 c0.14 0.32 -0.02 0.66 -0.32 0.8 c-0.32 0.12 -0.68 -0.02 -0.8 -0.34 l-5.06 -12.1 c-0.36 -0.86 -1.2 -1.42 -2.12 -1.42 c-0.94 0 -1.76 0.56 -2.12 1.42 l-4.56 10.9 c-0.06 0.14 -0.02 0.3 0.12 0.36 s0.28 0 0.34 -0.16 l4.56 -10.88 c0.28 -0.66 0.94 -1.08 1.66 -1.08 s1.38 0.42 1.66 1.1 l2.36 5.62 c0.22 0.52 -0.1 0.84 -0.58 0.84 l-4.8 0 c-0.34 0 -0.62 -0.28 -0.62 -0.62 s0.28 -0.6 0.62 -0.6 l3.9 0 l-2 -4.76 c-0.08 -0.22 -0.28 -0.38 -0.54 -0.38 s-0.46 0.16 -0.54 0.38 l-4.56 10.84 c-0.3 0.76 -1.16 1.12 -1.92 0.82 c-0.76 -0.32 -1.12 -1.18 -0.82 -1.92 l4.56 -10.84 c0.52 -1.36 1.82 -2.26 3.28 -2.26 z M25.480000000000004 4.880000000000001 c0.8 0 1.46 0.66 1.46 1.48 l0 13.04 c0 0.32 -0.26 0.6 -0.6 0.6 s-0.62 -0.28 -0.62 -0.6 l0 -13.04 c0 -0.14 -0.1 -0.26 -0.24 -0.26 s-0.26 0.12 -0.26 0.26 l0 6.08 c0 0.34 -0.28 0.6 -0.62 0.6 c-0.32 0 -0.6 -0.26 -0.6 -0.6 l0 -6.08 c0 -0.82 0.66 -1.48 1.48 -1.48 z" fill="#F3F6F6"/>
  </g>
</svg>